G75*
%MOIN*%
%OFA0B0*%
%FSLAX25Y25*%
%IPPOS*%
%LPD*%
%AMOC8*
5,1,8,0,0,1.08239X$1,22.5*
%
%ADD10C,0.02000*%
%ADD11C,0.00300*%
%ADD12C,0.00400*%
%ADD13C,0.00600*%
%ADD14C,0.00800*%
%ADD15C,0.00500*%
D10*
X0036000Y0127524D02*
X0036000Y0167524D01*
X0045000Y0167524D01*
X0044000Y0202524D02*
X0037000Y0202524D01*
X0037000Y0242524D01*
X0044000Y0242524D01*
X0051000Y0229524D02*
X0087000Y0229524D01*
X0087000Y0221524D01*
X0102000Y0221524D02*
X0102000Y0229524D01*
X0129000Y0229524D01*
X0219000Y0229524D01*
X0229000Y0222524D02*
X0237000Y0222524D01*
X0237000Y0262524D01*
X0229000Y0262524D01*
X0229000Y0212524D02*
X0237000Y0212524D01*
X0237000Y0172524D01*
X0229000Y0172524D01*
X0137000Y0174524D02*
X0120000Y0174524D01*
X0124000Y0170524D02*
X0133000Y0170524D01*
X0130000Y0166524D02*
X0127000Y0166524D01*
X0129000Y0175524D02*
X0129000Y0202524D01*
X0136000Y0202524D01*
X0129000Y0202524D02*
X0122000Y0202524D01*
X0122000Y0210524D02*
X0129000Y0210524D01*
X0136000Y0210524D01*
X0129000Y0210524D02*
X0129000Y0229524D01*
X0045000Y0127524D02*
X0036000Y0127524D01*
D11*
X0033850Y0128291D02*
X0033850Y0129525D01*
X0033233Y0130142D01*
X0032616Y0130142D01*
X0031998Y0129525D01*
X0031998Y0128291D01*
X0031381Y0127674D01*
X0030764Y0127674D01*
X0030147Y0128291D01*
X0030147Y0129525D01*
X0030764Y0130142D01*
X0031381Y0131357D02*
X0030147Y0132591D01*
X0031381Y0133826D01*
X0033850Y0133826D01*
X0033850Y0135040D02*
X0030147Y0135040D01*
X0031381Y0136274D01*
X0030147Y0137509D01*
X0033850Y0137509D01*
X0033850Y0138723D02*
X0033850Y0141192D01*
X0033850Y0139957D02*
X0030147Y0139957D01*
X0031381Y0138723D01*
X0030764Y0142406D02*
X0030147Y0143023D01*
X0030147Y0144258D01*
X0030764Y0144875D01*
X0033233Y0142406D01*
X0033850Y0143023D01*
X0033850Y0144258D01*
X0033233Y0144875D01*
X0030764Y0144875D01*
X0030147Y0146089D02*
X0031998Y0146089D01*
X0031381Y0147324D01*
X0031381Y0147941D01*
X0031998Y0148558D01*
X0033233Y0148558D01*
X0033850Y0147941D01*
X0033850Y0146707D01*
X0033233Y0146089D01*
X0030147Y0146089D02*
X0030147Y0148558D01*
X0030764Y0149772D02*
X0030147Y0150390D01*
X0030147Y0151624D01*
X0030764Y0152241D01*
X0031381Y0152241D01*
X0031998Y0151624D01*
X0032616Y0152241D01*
X0033233Y0152241D01*
X0033850Y0151624D01*
X0033850Y0150390D01*
X0033233Y0149772D01*
X0031998Y0151007D02*
X0031998Y0151624D01*
X0031998Y0153456D02*
X0031998Y0155924D01*
X0030764Y0157139D02*
X0030147Y0157756D01*
X0030147Y0158990D01*
X0030764Y0159608D01*
X0033233Y0157139D01*
X0033850Y0157756D01*
X0033850Y0158990D01*
X0033233Y0159608D01*
X0030764Y0159608D01*
X0031998Y0160822D02*
X0031998Y0163291D01*
X0031998Y0164505D02*
X0031998Y0166974D01*
X0030147Y0168188D02*
X0033850Y0170657D01*
X0030147Y0170657D01*
X0030147Y0171871D02*
X0030147Y0173723D01*
X0030764Y0174340D01*
X0033233Y0174340D01*
X0033850Y0173723D01*
X0033850Y0171871D01*
X0030147Y0171871D01*
X0030147Y0168188D02*
X0033850Y0168188D01*
X0033850Y0162673D02*
X0030147Y0162673D01*
X0031998Y0160822D01*
X0033233Y0157139D02*
X0030764Y0157139D01*
X0030764Y0142406D02*
X0033233Y0142406D01*
X0031998Y0133826D02*
X0031998Y0131357D01*
X0031381Y0131357D02*
X0033850Y0131357D01*
X0033850Y0128291D02*
X0033233Y0127674D01*
X0083150Y0146674D02*
X0085619Y0149142D01*
X0085619Y0149760D01*
X0085002Y0150377D01*
X0083767Y0150377D01*
X0083150Y0149760D01*
X0083150Y0146674D02*
X0085619Y0146674D01*
X0086833Y0146674D02*
X0086833Y0147291D01*
X0089302Y0149760D01*
X0089302Y0150377D01*
X0086833Y0150377D01*
X0090516Y0150377D02*
X0092985Y0150377D01*
X0092985Y0149760D01*
X0090516Y0147291D01*
X0090516Y0146674D01*
X0094199Y0148525D02*
X0096668Y0148525D01*
X0097883Y0148525D02*
X0099734Y0148525D01*
X0100351Y0147908D01*
X0100351Y0147291D01*
X0099734Y0146674D01*
X0098500Y0146674D01*
X0097883Y0147291D01*
X0097883Y0148525D01*
X0099117Y0149760D01*
X0100351Y0150377D01*
X0101566Y0149760D02*
X0102183Y0150377D01*
X0103417Y0150377D01*
X0104034Y0149760D01*
X0104034Y0149142D01*
X0103417Y0148525D01*
X0104034Y0147908D01*
X0104034Y0147291D01*
X0103417Y0146674D01*
X0102183Y0146674D01*
X0101566Y0147291D01*
X0102800Y0148525D02*
X0103417Y0148525D01*
X0105249Y0148525D02*
X0106483Y0149142D01*
X0107100Y0149142D01*
X0107718Y0148525D01*
X0107718Y0147291D01*
X0107100Y0146674D01*
X0105866Y0146674D01*
X0105249Y0147291D01*
X0105249Y0148525D02*
X0105249Y0150377D01*
X0107718Y0150377D01*
X0108932Y0148525D02*
X0111401Y0148525D01*
X0112615Y0148525D02*
X0115084Y0148525D01*
X0116298Y0146674D02*
X0116298Y0150377D01*
X0118767Y0146674D01*
X0118767Y0150377D01*
X0119981Y0150377D02*
X0121833Y0150377D01*
X0122450Y0149760D01*
X0122450Y0147291D01*
X0121833Y0146674D01*
X0119981Y0146674D01*
X0119981Y0150377D01*
X0110784Y0150377D02*
X0110784Y0146674D01*
X0108932Y0148525D02*
X0110784Y0150377D01*
X0114431Y0174674D02*
X0113948Y0175157D01*
X0113948Y0176125D01*
X0114431Y0176609D01*
X0116366Y0174674D01*
X0116850Y0175157D01*
X0116850Y0176125D01*
X0116366Y0176609D01*
X0114431Y0176609D01*
X0114431Y0177620D02*
X0114915Y0177620D01*
X0115399Y0178104D01*
X0115399Y0179071D01*
X0115883Y0179555D01*
X0116366Y0179555D01*
X0116850Y0179071D01*
X0116850Y0178104D01*
X0116366Y0177620D01*
X0115883Y0177620D01*
X0115399Y0178104D01*
X0115399Y0179071D02*
X0114915Y0179555D01*
X0114431Y0179555D01*
X0113948Y0179071D01*
X0113948Y0178104D01*
X0114431Y0177620D01*
X0114431Y0174674D02*
X0116366Y0174674D01*
X0116366Y0180567D02*
X0114431Y0180567D01*
X0113948Y0181050D01*
X0113948Y0182018D01*
X0114431Y0182502D01*
X0116366Y0180567D01*
X0116850Y0181050D01*
X0116850Y0182018D01*
X0116366Y0182502D01*
X0114431Y0182502D01*
X0113948Y0183513D02*
X0115399Y0183513D01*
X0114915Y0184481D01*
X0114915Y0184964D01*
X0115399Y0185448D01*
X0116366Y0185448D01*
X0116850Y0184964D01*
X0116850Y0183997D01*
X0116366Y0183513D01*
X0113948Y0183513D02*
X0113948Y0185448D01*
X0144948Y0185997D02*
X0144948Y0186964D01*
X0145431Y0187448D01*
X0145915Y0187448D01*
X0146399Y0186964D01*
X0146883Y0187448D01*
X0147366Y0187448D01*
X0147850Y0186964D01*
X0147850Y0185997D01*
X0147366Y0185513D01*
X0147366Y0184502D02*
X0145431Y0184502D01*
X0147366Y0182567D01*
X0147850Y0183050D01*
X0147850Y0184018D01*
X0147366Y0184502D01*
X0145431Y0184502D02*
X0144948Y0184018D01*
X0144948Y0183050D01*
X0145431Y0182567D01*
X0147366Y0182567D01*
X0147366Y0181555D02*
X0146883Y0181555D01*
X0146399Y0181071D01*
X0146399Y0179620D01*
X0147366Y0179620D01*
X0147850Y0180104D01*
X0147850Y0181071D01*
X0147366Y0181555D01*
X0145431Y0180588D02*
X0146399Y0179620D01*
X0145431Y0180588D02*
X0144948Y0181555D01*
X0145431Y0178609D02*
X0147366Y0176674D01*
X0147850Y0177157D01*
X0147850Y0178125D01*
X0147366Y0178609D01*
X0145431Y0178609D01*
X0144948Y0178125D01*
X0144948Y0177157D01*
X0145431Y0176674D01*
X0147366Y0176674D01*
X0145147Y0169558D02*
X0145147Y0167089D01*
X0148850Y0167089D01*
X0148850Y0165875D02*
X0146381Y0165875D01*
X0146998Y0167089D02*
X0146998Y0168324D01*
X0148850Y0165875D02*
X0148850Y0164023D01*
X0148233Y0163406D01*
X0146381Y0163406D01*
X0145764Y0158509D02*
X0145147Y0157891D01*
X0145147Y0156657D01*
X0145764Y0156040D01*
X0148233Y0156040D01*
X0145764Y0158509D01*
X0148233Y0158509D01*
X0148850Y0157891D01*
X0148850Y0156657D01*
X0148233Y0156040D01*
X0148233Y0154826D02*
X0148850Y0154208D01*
X0148850Y0152974D01*
X0148233Y0152357D01*
X0145764Y0154826D01*
X0148233Y0154826D01*
X0145764Y0154826D02*
X0145147Y0154208D01*
X0145147Y0152974D01*
X0145764Y0152357D01*
X0148233Y0152357D01*
X0148850Y0151142D02*
X0148850Y0148674D01*
X0148850Y0149908D02*
X0145147Y0149908D01*
X0146381Y0148674D01*
X0144233Y0137459D02*
X0141764Y0137459D01*
X0141147Y0136842D01*
X0141147Y0134990D01*
X0144850Y0134990D01*
X0144850Y0136842D01*
X0144233Y0137459D01*
X0144850Y0133776D02*
X0141147Y0133776D01*
X0141147Y0131307D02*
X0144850Y0133776D01*
X0144850Y0131307D02*
X0141147Y0131307D01*
X0142998Y0130093D02*
X0142998Y0127624D01*
X0141147Y0126410D02*
X0144850Y0126410D01*
X0144850Y0123941D02*
X0141147Y0123941D01*
X0142381Y0125175D01*
X0141147Y0126410D01*
X0142381Y0122727D02*
X0144850Y0122727D01*
X0142998Y0122727D02*
X0142998Y0120258D01*
X0142381Y0120258D02*
X0144850Y0120258D01*
X0144233Y0119043D02*
X0144850Y0118426D01*
X0144850Y0117192D01*
X0144233Y0116575D01*
X0144233Y0115360D02*
X0141764Y0115360D01*
X0144233Y0112892D01*
X0144850Y0113509D01*
X0144850Y0114743D01*
X0144233Y0115360D01*
X0144233Y0112892D02*
X0141764Y0112892D01*
X0141147Y0113509D01*
X0141147Y0114743D01*
X0141764Y0115360D01*
X0141764Y0116575D02*
X0141147Y0117192D01*
X0141147Y0118426D01*
X0141764Y0119043D01*
X0142381Y0119043D01*
X0142998Y0118426D01*
X0143616Y0119043D01*
X0144233Y0119043D01*
X0142998Y0118426D02*
X0142998Y0117809D01*
X0142381Y0120258D02*
X0141147Y0121492D01*
X0142381Y0122727D01*
X0142998Y0111677D02*
X0142381Y0111060D01*
X0142381Y0110443D01*
X0142998Y0109208D01*
X0141147Y0109208D01*
X0141147Y0111677D01*
X0142998Y0111677D02*
X0144233Y0111677D01*
X0144850Y0111060D01*
X0144850Y0109826D01*
X0144233Y0109208D01*
X0144850Y0107994D02*
X0144850Y0105525D01*
X0142381Y0107994D01*
X0141764Y0107994D01*
X0141147Y0107377D01*
X0141147Y0106142D01*
X0141764Y0105525D01*
X0142998Y0104311D02*
X0142998Y0101842D01*
X0144850Y0100628D02*
X0144850Y0098159D01*
X0144850Y0099393D02*
X0141147Y0099393D01*
X0142381Y0098159D01*
X0141764Y0096945D02*
X0142998Y0096945D01*
X0143616Y0096327D01*
X0143616Y0094476D01*
X0144850Y0094476D02*
X0141147Y0094476D01*
X0141147Y0096327D01*
X0141764Y0096945D01*
X0141764Y0093261D02*
X0141147Y0092644D01*
X0141147Y0091410D01*
X0141764Y0090793D01*
X0144233Y0090793D01*
X0144850Y0091410D01*
X0144850Y0092644D01*
X0144233Y0093261D01*
X0186147Y0125525D02*
X0187998Y0123674D01*
X0187998Y0126142D01*
X0187381Y0127357D02*
X0187998Y0127974D01*
X0187998Y0129826D01*
X0186764Y0129826D02*
X0189233Y0129826D01*
X0189850Y0129208D01*
X0189850Y0127974D01*
X0189233Y0127357D01*
X0187381Y0127357D02*
X0186764Y0127357D01*
X0186147Y0127974D01*
X0186147Y0129208D01*
X0186764Y0129826D01*
X0186764Y0131040D02*
X0186147Y0131657D01*
X0186147Y0132891D01*
X0186764Y0133509D01*
X0189233Y0131040D01*
X0189850Y0131657D01*
X0189850Y0132891D01*
X0189233Y0133509D01*
X0186764Y0133509D01*
X0187998Y0134723D02*
X0187998Y0137192D01*
X0187381Y0138406D02*
X0186147Y0139641D01*
X0189850Y0139641D01*
X0189850Y0140875D02*
X0189850Y0138406D01*
X0189233Y0142089D02*
X0189850Y0142707D01*
X0189850Y0143941D01*
X0189233Y0144558D01*
X0188616Y0144558D01*
X0187998Y0143941D01*
X0187998Y0143324D01*
X0187998Y0143941D02*
X0187381Y0144558D01*
X0186764Y0144558D01*
X0186147Y0143941D01*
X0186147Y0142707D01*
X0186764Y0142089D01*
X0186764Y0145772D02*
X0187381Y0145772D01*
X0187998Y0146390D01*
X0187998Y0148241D01*
X0186764Y0148241D02*
X0189233Y0148241D01*
X0189850Y0147624D01*
X0189850Y0146390D01*
X0189233Y0145772D01*
X0186764Y0145772D02*
X0186147Y0146390D01*
X0186147Y0147624D01*
X0186764Y0148241D01*
X0186764Y0149456D02*
X0187381Y0149456D01*
X0187998Y0150073D01*
X0187998Y0151307D01*
X0188616Y0151924D01*
X0189233Y0151924D01*
X0189850Y0151307D01*
X0189850Y0150073D01*
X0189233Y0149456D01*
X0188616Y0149456D01*
X0187998Y0150073D01*
X0187998Y0151307D02*
X0187381Y0151924D01*
X0186764Y0151924D01*
X0186147Y0151307D01*
X0186147Y0150073D01*
X0186764Y0149456D01*
X0186764Y0153139D02*
X0186147Y0153756D01*
X0186147Y0154990D01*
X0186764Y0155608D01*
X0187381Y0155608D01*
X0189850Y0153139D01*
X0189850Y0155608D01*
X0187998Y0156822D02*
X0187998Y0159291D01*
X0187381Y0160505D02*
X0186147Y0161739D01*
X0189850Y0161739D01*
X0189850Y0160505D02*
X0189850Y0162974D01*
X0187998Y0164188D02*
X0187998Y0166657D01*
X0186147Y0167871D02*
X0189850Y0170340D01*
X0186147Y0170340D01*
X0186147Y0171555D02*
X0186147Y0173406D01*
X0186764Y0174023D01*
X0189233Y0174023D01*
X0189850Y0173406D01*
X0189850Y0171555D01*
X0186147Y0171555D01*
X0186147Y0167871D02*
X0189850Y0167871D01*
X0172850Y0164089D02*
X0169147Y0164089D01*
X0169147Y0166558D01*
X0170998Y0165324D02*
X0170998Y0164089D01*
X0170381Y0162875D02*
X0172850Y0162875D01*
X0172850Y0161023D01*
X0172233Y0160406D01*
X0170381Y0160406D01*
X0169764Y0155509D02*
X0172233Y0153040D01*
X0172850Y0153657D01*
X0172850Y0154891D01*
X0172233Y0155509D01*
X0169764Y0155509D01*
X0169147Y0154891D01*
X0169147Y0153657D01*
X0169764Y0153040D01*
X0172233Y0153040D01*
X0172233Y0151826D02*
X0172850Y0151208D01*
X0172850Y0149974D01*
X0172233Y0149357D01*
X0169764Y0151826D01*
X0172233Y0151826D01*
X0169764Y0151826D02*
X0169147Y0151208D01*
X0169147Y0149974D01*
X0169764Y0149357D01*
X0172233Y0149357D01*
X0172850Y0148142D02*
X0172850Y0145674D01*
X0172850Y0146908D02*
X0169147Y0146908D01*
X0170381Y0145674D01*
X0186764Y0131040D02*
X0189233Y0131040D01*
X0189850Y0125525D02*
X0186147Y0125525D01*
X0145431Y0185513D02*
X0144948Y0185997D01*
X0146399Y0186481D02*
X0146399Y0186964D01*
X0067850Y0237674D02*
X0064147Y0237674D01*
X0064147Y0239525D01*
X0064764Y0240142D01*
X0065998Y0240142D01*
X0066616Y0239525D01*
X0066616Y0237674D01*
X0064147Y0241357D02*
X0064147Y0243826D01*
X0064147Y0245040D02*
X0066616Y0245040D01*
X0067850Y0246274D01*
X0066616Y0247509D01*
X0064147Y0247509D01*
X0064764Y0248723D02*
X0064147Y0249340D01*
X0064147Y0250575D01*
X0064764Y0251192D01*
X0067233Y0248723D01*
X0067850Y0249340D01*
X0067850Y0250575D01*
X0067233Y0251192D01*
X0064764Y0251192D01*
X0064764Y0252406D02*
X0065381Y0252406D01*
X0065998Y0253023D01*
X0065998Y0254875D01*
X0065998Y0256089D02*
X0065998Y0258558D01*
X0065381Y0258558D02*
X0067850Y0258558D01*
X0065998Y0259772D02*
X0065998Y0262241D01*
X0065998Y0263456D02*
X0065998Y0265924D01*
X0064764Y0267139D02*
X0064147Y0267756D01*
X0064147Y0268990D01*
X0064764Y0269608D01*
X0067233Y0267139D01*
X0067850Y0267756D01*
X0067850Y0268990D01*
X0067233Y0269608D01*
X0064764Y0269608D01*
X0064764Y0270822D02*
X0064147Y0271439D01*
X0064147Y0272673D01*
X0064764Y0273291D01*
X0065381Y0273291D01*
X0065998Y0272673D01*
X0066616Y0273291D01*
X0067233Y0273291D01*
X0067850Y0272673D01*
X0067850Y0271439D01*
X0067233Y0270822D01*
X0065998Y0272056D02*
X0065998Y0272673D01*
X0064764Y0274505D02*
X0064147Y0275122D01*
X0064147Y0276357D01*
X0064764Y0276974D01*
X0067233Y0274505D01*
X0067850Y0275122D01*
X0067850Y0276357D01*
X0067233Y0276974D01*
X0064764Y0276974D01*
X0064147Y0278188D02*
X0067233Y0278188D01*
X0067850Y0278805D01*
X0067850Y0280040D01*
X0067233Y0280657D01*
X0064147Y0280657D01*
X0065998Y0281871D02*
X0065998Y0284340D01*
X0065998Y0285555D02*
X0065998Y0287406D01*
X0066616Y0288023D01*
X0067233Y0288023D01*
X0067850Y0287406D01*
X0067850Y0285555D01*
X0064147Y0285555D01*
X0064147Y0287406D01*
X0064764Y0288023D01*
X0065381Y0288023D01*
X0065998Y0287406D01*
X0064764Y0289238D02*
X0064147Y0289855D01*
X0064147Y0291089D01*
X0064764Y0291706D01*
X0065381Y0291706D01*
X0067850Y0289238D01*
X0067850Y0291706D01*
X0067233Y0292921D02*
X0064764Y0295390D01*
X0067233Y0295390D01*
X0067850Y0294772D01*
X0067850Y0293538D01*
X0067233Y0292921D01*
X0064764Y0292921D01*
X0064147Y0293538D01*
X0064147Y0294772D01*
X0064764Y0295390D01*
X0064764Y0296604D02*
X0064147Y0297221D01*
X0064147Y0298456D01*
X0064764Y0299073D01*
X0065381Y0299073D01*
X0065998Y0298456D01*
X0066616Y0299073D01*
X0067233Y0299073D01*
X0067850Y0298456D01*
X0067850Y0297221D01*
X0067233Y0296604D01*
X0065998Y0297838D02*
X0065998Y0298456D01*
X0065998Y0300287D02*
X0065998Y0302756D01*
X0064147Y0303970D02*
X0067850Y0306439D01*
X0064147Y0306439D01*
X0064147Y0307653D02*
X0064147Y0309505D01*
X0064764Y0310122D01*
X0067233Y0310122D01*
X0067850Y0309505D01*
X0067850Y0307653D01*
X0064147Y0307653D01*
X0064147Y0303970D02*
X0067850Y0303970D01*
X0067233Y0274505D02*
X0064764Y0274505D01*
X0064764Y0267139D02*
X0067233Y0267139D01*
X0067850Y0265307D02*
X0064147Y0265307D01*
X0065998Y0263456D01*
X0065381Y0258558D02*
X0064147Y0257324D01*
X0065381Y0256089D01*
X0067850Y0256089D01*
X0067233Y0254875D02*
X0064764Y0254875D01*
X0064147Y0254258D01*
X0064147Y0253023D01*
X0064764Y0252406D01*
X0067233Y0252406D02*
X0067850Y0253023D01*
X0067850Y0254258D01*
X0067233Y0254875D01*
X0067233Y0248723D02*
X0064764Y0248723D01*
X0064147Y0242591D02*
X0067850Y0242591D01*
X0034850Y0239842D02*
X0034850Y0237990D01*
X0031147Y0237990D01*
X0031147Y0239842D01*
X0031764Y0240459D01*
X0034233Y0240459D01*
X0034850Y0239842D01*
X0034850Y0236776D02*
X0031147Y0236776D01*
X0031147Y0234307D02*
X0034850Y0236776D01*
X0034850Y0234307D02*
X0031147Y0234307D01*
X0032998Y0233093D02*
X0032998Y0230624D01*
X0032998Y0229410D02*
X0032998Y0226941D01*
X0031147Y0228793D01*
X0034850Y0228793D01*
X0034233Y0225727D02*
X0034850Y0225109D01*
X0034850Y0223875D01*
X0034233Y0223258D01*
X0031764Y0225727D01*
X0034233Y0225727D01*
X0031764Y0225727D02*
X0031147Y0225109D01*
X0031147Y0223875D01*
X0031764Y0223258D01*
X0034233Y0223258D01*
X0032998Y0222043D02*
X0032998Y0219575D01*
X0032381Y0218360D02*
X0031764Y0218360D01*
X0031147Y0217743D01*
X0031147Y0216509D01*
X0031764Y0215892D01*
X0031147Y0214677D02*
X0031147Y0212208D01*
X0032998Y0212208D01*
X0032381Y0213443D01*
X0032381Y0214060D01*
X0032998Y0214677D01*
X0034233Y0214677D01*
X0034850Y0214060D01*
X0034850Y0212826D01*
X0034233Y0212208D01*
X0034233Y0210994D02*
X0034850Y0210377D01*
X0034850Y0209142D01*
X0034233Y0208525D01*
X0031764Y0210994D01*
X0034233Y0210994D01*
X0034233Y0208525D02*
X0031764Y0208525D01*
X0031147Y0209142D01*
X0031147Y0210377D01*
X0031764Y0210994D01*
X0034233Y0215892D02*
X0034850Y0216509D01*
X0034850Y0217743D01*
X0034233Y0218360D01*
X0033616Y0218360D01*
X0032998Y0217743D01*
X0032998Y0217126D01*
X0032998Y0217743D02*
X0032381Y0218360D01*
X0034850Y0207311D02*
X0034850Y0204842D01*
X0034850Y0203628D02*
X0031147Y0203628D01*
X0032381Y0202393D01*
X0031147Y0201159D01*
X0034850Y0201159D01*
X0034850Y0199945D02*
X0032381Y0199945D01*
X0031147Y0198710D01*
X0032381Y0197476D01*
X0034850Y0197476D01*
X0034233Y0196261D02*
X0034850Y0195644D01*
X0034850Y0194410D01*
X0034233Y0193793D01*
X0032998Y0194410D02*
X0032381Y0193793D01*
X0031764Y0193793D01*
X0031147Y0194410D01*
X0031147Y0195644D01*
X0031764Y0196261D01*
X0032998Y0195644D02*
X0033616Y0196261D01*
X0034233Y0196261D01*
X0032998Y0195644D02*
X0032998Y0194410D01*
X0032998Y0197476D02*
X0032998Y0199945D01*
X0032381Y0204842D02*
X0031147Y0206077D01*
X0034850Y0206077D01*
X0239147Y0207673D02*
X0240998Y0205822D01*
X0240998Y0208291D01*
X0240998Y0209505D02*
X0240998Y0211974D01*
X0239147Y0213188D02*
X0242850Y0215657D01*
X0239147Y0215657D01*
X0239147Y0216871D02*
X0239147Y0218723D01*
X0239764Y0219340D01*
X0242233Y0219340D01*
X0242850Y0218723D01*
X0242850Y0216871D01*
X0239147Y0216871D01*
X0239764Y0221674D02*
X0240381Y0221674D01*
X0240998Y0222291D01*
X0240998Y0223525D01*
X0241616Y0224142D01*
X0242233Y0224142D01*
X0242850Y0223525D01*
X0242850Y0222291D01*
X0242233Y0221674D01*
X0239764Y0221674D02*
X0239147Y0222291D01*
X0239147Y0223525D01*
X0239764Y0224142D01*
X0240381Y0225357D02*
X0239147Y0226591D01*
X0240381Y0227826D01*
X0242850Y0227826D01*
X0242850Y0229040D02*
X0239147Y0229040D01*
X0240381Y0230274D01*
X0239147Y0231509D01*
X0242850Y0231509D01*
X0242850Y0232723D02*
X0242850Y0235192D01*
X0242850Y0233957D02*
X0239147Y0233957D01*
X0240381Y0232723D01*
X0239764Y0236406D02*
X0239147Y0237023D01*
X0239147Y0238258D01*
X0239764Y0238875D01*
X0242233Y0236406D01*
X0242850Y0237023D01*
X0242850Y0238258D01*
X0242233Y0238875D01*
X0239764Y0238875D01*
X0239147Y0240089D02*
X0240998Y0240089D01*
X0240381Y0241324D01*
X0240381Y0241941D01*
X0240998Y0242558D01*
X0242233Y0242558D01*
X0242850Y0241941D01*
X0242850Y0240707D01*
X0242233Y0240089D01*
X0239147Y0240089D02*
X0239147Y0242558D01*
X0239764Y0243772D02*
X0239147Y0244390D01*
X0239147Y0245624D01*
X0239764Y0246241D01*
X0240381Y0246241D01*
X0240998Y0245624D01*
X0241616Y0246241D01*
X0242233Y0246241D01*
X0242850Y0245624D01*
X0242850Y0244390D01*
X0242233Y0243772D01*
X0240998Y0245007D02*
X0240998Y0245624D01*
X0240998Y0247456D02*
X0240998Y0249924D01*
X0239764Y0251139D02*
X0239147Y0251756D01*
X0239147Y0252990D01*
X0239764Y0253608D01*
X0242233Y0251139D01*
X0242850Y0251756D01*
X0242850Y0252990D01*
X0242233Y0253608D01*
X0239764Y0253608D01*
X0240998Y0254822D02*
X0240998Y0257291D01*
X0240998Y0258505D02*
X0240998Y0260974D01*
X0239147Y0262188D02*
X0242850Y0264657D01*
X0239147Y0264657D01*
X0239147Y0265871D02*
X0239147Y0267723D01*
X0239764Y0268340D01*
X0242233Y0268340D01*
X0242850Y0267723D01*
X0242850Y0265871D01*
X0239147Y0265871D01*
X0239147Y0262188D02*
X0242850Y0262188D01*
X0242850Y0256673D02*
X0239147Y0256673D01*
X0240998Y0254822D01*
X0242233Y0251139D02*
X0239764Y0251139D01*
X0239764Y0236406D02*
X0242233Y0236406D01*
X0240998Y0227826D02*
X0240998Y0225357D01*
X0240381Y0225357D02*
X0242850Y0225357D01*
X0242850Y0213188D02*
X0239147Y0213188D01*
X0239147Y0207673D02*
X0242850Y0207673D01*
X0242233Y0204608D02*
X0239764Y0204608D01*
X0242233Y0202139D01*
X0242850Y0202756D01*
X0242850Y0203990D01*
X0242233Y0204608D01*
X0239764Y0204608D02*
X0239147Y0203990D01*
X0239147Y0202756D01*
X0239764Y0202139D01*
X0242233Y0202139D01*
X0240998Y0200924D02*
X0240998Y0198456D01*
X0240381Y0197241D02*
X0240998Y0196624D01*
X0241616Y0197241D01*
X0242233Y0197241D01*
X0242850Y0196624D01*
X0242850Y0195390D01*
X0242233Y0194772D01*
X0242233Y0193558D02*
X0240998Y0193558D01*
X0240381Y0192941D01*
X0240381Y0192324D01*
X0240998Y0191089D01*
X0239147Y0191089D01*
X0239147Y0193558D01*
X0239764Y0194772D02*
X0239147Y0195390D01*
X0239147Y0196624D01*
X0239764Y0197241D01*
X0240381Y0197241D01*
X0240998Y0196624D02*
X0240998Y0196007D01*
X0242233Y0193558D02*
X0242850Y0192941D01*
X0242850Y0191707D01*
X0242233Y0191089D01*
X0242233Y0189875D02*
X0242850Y0189258D01*
X0242850Y0188023D01*
X0242233Y0187406D01*
X0239764Y0189875D01*
X0242233Y0189875D01*
X0242233Y0187406D02*
X0239764Y0187406D01*
X0239147Y0188023D01*
X0239147Y0189258D01*
X0239764Y0189875D01*
X0242850Y0186192D02*
X0242850Y0183723D01*
X0242850Y0182509D02*
X0239147Y0182509D01*
X0240381Y0181274D01*
X0239147Y0180040D01*
X0242850Y0180040D01*
X0242850Y0178826D02*
X0240381Y0178826D01*
X0239147Y0177591D01*
X0240381Y0176357D01*
X0242850Y0176357D01*
X0242233Y0175142D02*
X0242850Y0174525D01*
X0242850Y0173291D01*
X0242233Y0172674D01*
X0240998Y0173291D02*
X0240998Y0174525D01*
X0241616Y0175142D01*
X0242233Y0175142D01*
X0240998Y0176357D02*
X0240998Y0178826D01*
X0240381Y0183723D02*
X0239147Y0184957D01*
X0242850Y0184957D01*
X0239764Y0175142D02*
X0239147Y0174525D01*
X0239147Y0173291D01*
X0239764Y0172674D01*
X0240381Y0172674D01*
X0240998Y0173291D01*
D12*
X0201202Y0180724D02*
X0199467Y0182458D01*
X0200335Y0182458D02*
X0197732Y0182458D01*
X0197732Y0180724D02*
X0197732Y0185928D01*
X0200335Y0185928D01*
X0201202Y0185061D01*
X0201202Y0183326D01*
X0200335Y0182458D01*
X0196046Y0181591D02*
X0196046Y0185061D01*
X0195178Y0185928D01*
X0193443Y0185928D01*
X0192576Y0185061D01*
X0192576Y0181591D01*
X0193443Y0180724D01*
X0195178Y0180724D01*
X0196046Y0181591D01*
X0190889Y0185928D02*
X0187420Y0185928D01*
X0185717Y0185928D02*
X0183982Y0185928D01*
X0184849Y0185928D02*
X0184849Y0180724D01*
X0183982Y0180724D02*
X0185717Y0180724D01*
X0189154Y0180724D02*
X0189154Y0185928D01*
X0182295Y0185061D02*
X0181428Y0185928D01*
X0179693Y0185928D01*
X0178826Y0185061D01*
X0178826Y0181591D01*
X0179693Y0180724D01*
X0181428Y0180724D01*
X0182295Y0181591D01*
X0177139Y0180724D02*
X0177139Y0184193D01*
X0175404Y0185928D01*
X0173669Y0184193D01*
X0173669Y0180724D01*
X0173669Y0183326D02*
X0177139Y0183326D01*
X0171982Y0183326D02*
X0171115Y0182458D01*
X0168513Y0182458D01*
X0168513Y0180724D02*
X0168513Y0185928D01*
X0171115Y0185928D01*
X0171982Y0185061D01*
X0171982Y0183326D01*
X0166826Y0183326D02*
X0163356Y0183326D01*
X0163356Y0184193D02*
X0165091Y0185928D01*
X0166826Y0184193D01*
X0166826Y0180724D01*
X0163356Y0180724D02*
X0163356Y0184193D01*
X0161670Y0185061D02*
X0160802Y0185928D01*
X0159067Y0185928D01*
X0158200Y0185061D01*
X0158200Y0181591D01*
X0159067Y0180724D01*
X0160802Y0180724D01*
X0161670Y0181591D01*
X0135101Y0134995D02*
X0135101Y0134128D01*
X0135101Y0132393D02*
X0135101Y0128924D01*
X0135968Y0128924D02*
X0134233Y0128924D01*
X0132546Y0128924D02*
X0129944Y0128924D01*
X0129077Y0129791D01*
X0129077Y0131526D01*
X0129944Y0132393D01*
X0132546Y0132393D01*
X0134233Y0132393D02*
X0135101Y0132393D01*
X0137671Y0134128D02*
X0138538Y0134128D01*
X0138538Y0128924D01*
X0137671Y0128924D02*
X0139406Y0128924D01*
X0141108Y0128924D02*
X0142843Y0128924D01*
X0141976Y0128924D02*
X0141976Y0134128D01*
X0141108Y0134128D01*
X0145413Y0132393D02*
X0147148Y0132393D01*
X0148016Y0131526D01*
X0148016Y0128924D01*
X0145413Y0128924D01*
X0144546Y0129791D01*
X0145413Y0130658D01*
X0148016Y0130658D01*
X0149702Y0132393D02*
X0151437Y0132393D01*
X0150570Y0133261D02*
X0150570Y0129791D01*
X0151437Y0128924D01*
X0153140Y0129791D02*
X0154007Y0128924D01*
X0155742Y0128924D01*
X0156610Y0129791D01*
X0156610Y0131526D01*
X0155742Y0132393D01*
X0154007Y0132393D01*
X0153140Y0131526D01*
X0153140Y0129791D01*
X0158296Y0128924D02*
X0158296Y0132393D01*
X0158296Y0130658D02*
X0160031Y0132393D01*
X0160899Y0132393D01*
X0167965Y0106328D02*
X0166230Y0104593D01*
X0166230Y0101124D01*
X0166230Y0103726D02*
X0169700Y0103726D01*
X0169700Y0104593D02*
X0169700Y0101124D01*
X0171386Y0101991D02*
X0171386Y0104593D01*
X0169700Y0104593D02*
X0167965Y0106328D01*
X0171386Y0101991D02*
X0172254Y0101124D01*
X0174856Y0101124D01*
X0174856Y0104593D01*
X0176543Y0103726D02*
X0176543Y0101991D01*
X0177410Y0101124D01*
X0180012Y0101124D01*
X0180012Y0106328D01*
X0180012Y0104593D02*
X0177410Y0104593D01*
X0176543Y0103726D01*
X0181699Y0104593D02*
X0182567Y0104593D01*
X0182567Y0101124D01*
X0183434Y0101124D02*
X0181699Y0101124D01*
X0182567Y0106328D02*
X0182567Y0107195D01*
X0186004Y0104593D02*
X0185137Y0103726D01*
X0185137Y0101991D01*
X0186004Y0101124D01*
X0187739Y0101124D01*
X0188606Y0101991D01*
X0188606Y0103726D01*
X0187739Y0104593D01*
X0186004Y0104593D01*
X0195450Y0105461D02*
X0195450Y0101991D01*
X0196317Y0101124D01*
X0198052Y0101124D01*
X0198919Y0101991D01*
X0198919Y0105461D01*
X0198052Y0106328D01*
X0196317Y0106328D01*
X0195450Y0105461D01*
X0200606Y0104593D02*
X0200606Y0101991D01*
X0201473Y0101124D01*
X0204076Y0101124D01*
X0204076Y0104593D01*
X0205762Y0104593D02*
X0207497Y0104593D01*
X0206630Y0105461D02*
X0206630Y0101991D01*
X0207497Y0101124D01*
X0127390Y0103724D02*
X0127390Y0106326D01*
X0126523Y0107193D01*
X0123920Y0107193D01*
X0123920Y0103724D01*
X0122218Y0103724D02*
X0120483Y0103724D01*
X0121350Y0103724D02*
X0121350Y0107193D01*
X0120483Y0107193D01*
X0118796Y0106326D02*
X0118796Y0103724D01*
X0116194Y0103724D01*
X0115326Y0104591D01*
X0116194Y0105458D01*
X0118796Y0105458D01*
X0118796Y0106326D02*
X0117929Y0107193D01*
X0116194Y0107193D01*
X0113640Y0106326D02*
X0113640Y0103724D01*
X0111905Y0103724D02*
X0111905Y0106326D01*
X0112772Y0107193D01*
X0113640Y0106326D01*
X0111905Y0106326D02*
X0111037Y0107193D01*
X0110170Y0107193D01*
X0110170Y0103724D01*
X0108483Y0104591D02*
X0108483Y0106326D01*
X0107616Y0107193D01*
X0105881Y0107193D01*
X0105014Y0106326D01*
X0105014Y0104591D01*
X0105881Y0103724D01*
X0107616Y0103724D01*
X0108483Y0104591D01*
X0107592Y0112124D02*
X0111061Y0115593D01*
X0111061Y0116461D01*
X0110194Y0117328D01*
X0108459Y0117328D01*
X0107592Y0116461D01*
X0107608Y0120524D02*
X0107608Y0125728D01*
X0105873Y0123993D01*
X0105873Y0120524D02*
X0109343Y0120524D01*
X0112748Y0116461D02*
X0113616Y0117328D01*
X0115350Y0117328D01*
X0116218Y0116461D01*
X0112748Y0112991D01*
X0113616Y0112124D01*
X0115350Y0112124D01*
X0116218Y0112991D01*
X0116218Y0116461D01*
X0117905Y0115593D02*
X0119639Y0117328D01*
X0119639Y0112124D01*
X0117905Y0112124D02*
X0121374Y0112124D01*
X0123061Y0112991D02*
X0123928Y0112124D01*
X0125663Y0112124D01*
X0126531Y0112991D01*
X0126531Y0116461D01*
X0125663Y0117328D01*
X0123928Y0117328D01*
X0123061Y0116461D01*
X0123061Y0115593D01*
X0123928Y0114726D01*
X0126531Y0114726D01*
X0121350Y0109795D02*
X0121350Y0108928D01*
X0112748Y0112991D02*
X0112748Y0116461D01*
X0111061Y0112124D02*
X0107592Y0112124D01*
X0103327Y0108061D02*
X0103327Y0104591D01*
X0102459Y0103724D01*
X0099857Y0103724D01*
X0099857Y0108928D01*
X0102459Y0108928D01*
X0103327Y0108061D01*
X0100749Y0111256D02*
X0099881Y0110389D01*
X0099014Y0110389D01*
X0100749Y0111256D02*
X0100749Y0115593D01*
X0100749Y0112124D02*
X0098146Y0112124D01*
X0097279Y0112991D01*
X0097279Y0115593D01*
X0095584Y0115593D02*
X0094717Y0115593D01*
X0092982Y0113858D01*
X0091295Y0113858D02*
X0088693Y0113858D01*
X0087826Y0112991D01*
X0088693Y0112124D01*
X0091295Y0112124D01*
X0091295Y0114726D01*
X0090428Y0115593D01*
X0088693Y0115593D01*
X0086139Y0115593D02*
X0086139Y0112124D01*
X0083537Y0112124D01*
X0082669Y0112991D01*
X0082669Y0115593D01*
X0080982Y0114726D02*
X0080982Y0112124D01*
X0080982Y0114726D02*
X0080115Y0115593D01*
X0077513Y0115593D01*
X0077513Y0112124D01*
X0075826Y0112124D02*
X0075826Y0114726D01*
X0074959Y0115593D01*
X0073224Y0115593D01*
X0073224Y0113858D02*
X0075826Y0113858D01*
X0075826Y0112124D02*
X0073224Y0112124D01*
X0072356Y0112991D01*
X0073224Y0113858D01*
X0069802Y0112991D02*
X0069802Y0117328D01*
X0068935Y0117328D02*
X0070670Y0117328D01*
X0068935Y0120524D02*
X0070670Y0122258D01*
X0070670Y0125728D01*
X0073224Y0123993D02*
X0074959Y0123993D01*
X0075826Y0123126D01*
X0075826Y0122258D01*
X0072356Y0122258D01*
X0072356Y0121391D02*
X0072356Y0123126D01*
X0073224Y0123993D01*
X0072356Y0121391D02*
X0073224Y0120524D01*
X0074959Y0120524D01*
X0077513Y0120524D02*
X0077513Y0123993D01*
X0077513Y0122258D02*
X0079248Y0123993D01*
X0080115Y0123993D01*
X0081810Y0123126D02*
X0082677Y0122258D01*
X0084412Y0122258D01*
X0085279Y0121391D01*
X0084412Y0120524D01*
X0081810Y0120524D01*
X0081810Y0123126D02*
X0082677Y0123993D01*
X0085279Y0123993D01*
X0086966Y0123993D02*
X0087834Y0123993D01*
X0087834Y0120524D01*
X0088701Y0120524D02*
X0086966Y0120524D01*
X0090404Y0121391D02*
X0090404Y0123126D01*
X0091271Y0123993D01*
X0093006Y0123993D01*
X0093873Y0123126D01*
X0093873Y0121391D01*
X0093006Y0120524D01*
X0091271Y0120524D01*
X0090404Y0121391D01*
X0087834Y0125728D02*
X0087834Y0126595D01*
X0086107Y0128924D02*
X0089576Y0132393D01*
X0092131Y0132393D02*
X0093865Y0132393D01*
X0094733Y0131526D01*
X0094733Y0128924D01*
X0092131Y0128924D01*
X0091263Y0129791D01*
X0092131Y0130658D01*
X0094733Y0130658D01*
X0096420Y0132393D02*
X0098154Y0132393D01*
X0097287Y0133261D02*
X0097287Y0129791D01*
X0098154Y0128924D01*
X0099857Y0128924D02*
X0101592Y0128924D01*
X0100725Y0128924D02*
X0100725Y0132393D01*
X0099857Y0132393D01*
X0100725Y0134128D02*
X0100725Y0134995D01*
X0104162Y0132393D02*
X0103295Y0131526D01*
X0103295Y0129791D01*
X0104162Y0128924D01*
X0105897Y0128924D01*
X0106764Y0129791D01*
X0106764Y0131526D01*
X0105897Y0132393D01*
X0104162Y0132393D01*
X0108451Y0132393D02*
X0108451Y0128924D01*
X0108451Y0132393D02*
X0111053Y0132393D01*
X0111921Y0131526D01*
X0111921Y0128924D01*
X0118764Y0129791D02*
X0119631Y0128924D01*
X0121366Y0128924D01*
X0122234Y0129791D01*
X0122234Y0133261D01*
X0121366Y0134128D01*
X0119631Y0134128D01*
X0118764Y0133261D01*
X0118764Y0129791D01*
X0123920Y0128924D02*
X0126523Y0128924D01*
X0127390Y0129791D01*
X0126523Y0130658D01*
X0124788Y0130658D01*
X0123920Y0131526D01*
X0124788Y0132393D01*
X0127390Y0132393D01*
X0099030Y0123126D02*
X0099030Y0120524D01*
X0099030Y0123126D02*
X0098162Y0123993D01*
X0095560Y0123993D01*
X0095560Y0120524D01*
X0092982Y0115593D02*
X0092982Y0112124D01*
X0093014Y0107193D02*
X0090412Y0107193D01*
X0089544Y0106326D01*
X0089544Y0104591D01*
X0090412Y0103724D01*
X0093014Y0103724D01*
X0087842Y0103724D02*
X0086107Y0103724D01*
X0086974Y0103724D02*
X0086974Y0107193D01*
X0086107Y0107193D01*
X0086974Y0108928D02*
X0086974Y0109795D01*
X0083537Y0108928D02*
X0083537Y0103724D01*
X0084404Y0103724D02*
X0082669Y0103724D01*
X0080982Y0104591D02*
X0080982Y0106326D01*
X0080115Y0107193D01*
X0077513Y0107193D01*
X0075826Y0107193D02*
X0075826Y0103724D01*
X0073224Y0103724D01*
X0072356Y0104591D01*
X0072356Y0107193D01*
X0070670Y0106326D02*
X0069802Y0105458D01*
X0067200Y0105458D01*
X0067200Y0103724D02*
X0067200Y0108928D01*
X0069802Y0108928D01*
X0070670Y0108061D01*
X0070670Y0106326D01*
X0068935Y0112124D02*
X0069802Y0112991D01*
X0068935Y0112124D02*
X0068067Y0112124D01*
X0067200Y0112991D01*
X0068935Y0120524D02*
X0067200Y0122258D01*
X0067200Y0125728D01*
X0067200Y0128924D02*
X0067200Y0134128D01*
X0069802Y0134128D01*
X0070670Y0133261D01*
X0070670Y0131526D01*
X0069802Y0130658D01*
X0067200Y0130658D01*
X0068935Y0130658D02*
X0070670Y0128924D01*
X0072356Y0129791D02*
X0072356Y0131526D01*
X0073224Y0132393D01*
X0074959Y0132393D01*
X0075826Y0131526D01*
X0075826Y0130658D01*
X0072356Y0130658D01*
X0072356Y0129791D02*
X0073224Y0128924D01*
X0074959Y0128924D01*
X0077513Y0128924D02*
X0079248Y0128924D01*
X0078380Y0128924D02*
X0078380Y0134128D01*
X0077513Y0134128D01*
X0081818Y0130658D02*
X0080950Y0129791D01*
X0081818Y0128924D01*
X0084420Y0128924D01*
X0084420Y0131526D01*
X0083553Y0132393D01*
X0081818Y0132393D01*
X0081818Y0130658D02*
X0084420Y0130658D01*
X0086107Y0132393D02*
X0089576Y0128924D01*
X0083537Y0108928D02*
X0082669Y0108928D01*
X0080982Y0104591D02*
X0080115Y0103724D01*
X0077513Y0103724D01*
X0077513Y0108928D01*
X0087452Y0258039D02*
X0090521Y0261108D01*
X0090521Y0261875D01*
X0089754Y0262643D01*
X0088219Y0262643D01*
X0087452Y0261875D01*
X0087452Y0258039D02*
X0090521Y0258039D01*
X0092056Y0258806D02*
X0092056Y0261875D01*
X0092823Y0262643D01*
X0094358Y0262643D01*
X0095125Y0261875D01*
X0092056Y0258806D01*
X0092823Y0258039D01*
X0094358Y0258039D01*
X0095125Y0258806D01*
X0095125Y0261875D01*
X0096660Y0262643D02*
X0096660Y0258039D01*
X0096660Y0259573D02*
X0098962Y0261108D01*
X0096660Y0259573D02*
X0098962Y0258039D01*
X0095125Y0289535D02*
X0092056Y0289535D01*
X0093591Y0289535D02*
X0093591Y0294139D01*
X0092056Y0292604D01*
X0090521Y0293371D02*
X0090521Y0291837D01*
X0089754Y0291069D01*
X0087452Y0291069D01*
X0087452Y0289535D02*
X0087452Y0294139D01*
X0089754Y0294139D01*
X0090521Y0293371D01*
X0088987Y0291069D02*
X0090521Y0289535D01*
D13*
X0047300Y0101391D02*
X0047867Y0100824D01*
X0049001Y0100824D01*
X0049569Y0101391D01*
X0049569Y0101958D01*
X0049001Y0102525D01*
X0047867Y0102525D01*
X0047300Y0103092D01*
X0047300Y0103659D01*
X0047867Y0104227D01*
X0049001Y0104227D01*
X0049569Y0103659D01*
X0050983Y0103659D02*
X0050983Y0101391D01*
X0051550Y0100824D01*
X0052685Y0100824D01*
X0053252Y0101391D01*
X0054666Y0100824D02*
X0054666Y0104227D01*
X0053252Y0103659D02*
X0052685Y0104227D01*
X0051550Y0104227D01*
X0050983Y0103659D01*
X0054666Y0100824D02*
X0056935Y0100824D01*
X0056935Y0110824D02*
X0056935Y0113092D01*
X0055801Y0114227D01*
X0054666Y0113092D01*
X0054666Y0110824D01*
X0053252Y0111391D02*
X0053252Y0113659D01*
X0052685Y0114227D01*
X0050983Y0114227D01*
X0050983Y0110824D01*
X0052685Y0110824D01*
X0053252Y0111391D01*
X0054666Y0112525D02*
X0056935Y0112525D01*
X0049569Y0111958D02*
X0049569Y0111391D01*
X0049001Y0110824D01*
X0047867Y0110824D01*
X0047300Y0111391D01*
X0047867Y0112525D02*
X0049001Y0112525D01*
X0049569Y0111958D01*
X0049569Y0113659D02*
X0049001Y0114227D01*
X0047867Y0114227D01*
X0047300Y0113659D01*
X0047300Y0113092D01*
X0047867Y0112525D01*
X0047300Y0120824D02*
X0047300Y0123092D01*
X0048434Y0124227D01*
X0049569Y0123092D01*
X0049569Y0120824D01*
X0050983Y0120824D02*
X0050983Y0124227D01*
X0052685Y0124227D01*
X0053252Y0123659D01*
X0053252Y0122525D01*
X0052685Y0121958D01*
X0050983Y0121958D01*
X0052117Y0121958D02*
X0053252Y0120824D01*
X0054666Y0120824D02*
X0054666Y0124227D01*
X0056935Y0124227D01*
X0058349Y0124227D02*
X0060618Y0124227D01*
X0059484Y0122525D02*
X0058349Y0122525D01*
X0058349Y0120824D02*
X0058349Y0124227D01*
X0055801Y0122525D02*
X0054666Y0122525D01*
X0054666Y0120824D02*
X0056935Y0120824D01*
X0049569Y0122525D02*
X0047300Y0122525D01*
X0047867Y0130824D02*
X0049001Y0130824D01*
X0049569Y0131391D01*
X0049569Y0132525D01*
X0048434Y0132525D01*
X0047300Y0133659D02*
X0047300Y0131391D01*
X0047867Y0130824D01*
X0047300Y0133659D02*
X0047867Y0134227D01*
X0049001Y0134227D01*
X0049569Y0133659D01*
X0050983Y0134227D02*
X0053252Y0130824D01*
X0053252Y0134227D01*
X0054666Y0134227D02*
X0054666Y0130824D01*
X0056368Y0130824D01*
X0056935Y0131391D01*
X0056935Y0133659D01*
X0056368Y0134227D01*
X0054666Y0134227D01*
X0050983Y0134227D02*
X0050983Y0130824D01*
X0051550Y0140824D02*
X0050983Y0141391D01*
X0051550Y0140824D02*
X0052685Y0140824D01*
X0053252Y0141391D01*
X0053252Y0141958D01*
X0052685Y0142525D01*
X0052117Y0142525D01*
X0052685Y0142525D02*
X0053252Y0143092D01*
X0053252Y0143659D01*
X0052685Y0144227D01*
X0051550Y0144227D01*
X0050983Y0143659D01*
X0048434Y0144227D02*
X0048434Y0140824D01*
X0047300Y0140824D02*
X0049569Y0140824D01*
X0047300Y0143092D02*
X0048434Y0144227D01*
X0048434Y0150824D02*
X0048434Y0154227D01*
X0047300Y0153092D01*
X0047300Y0150824D02*
X0049569Y0150824D01*
X0050983Y0150824D02*
X0053252Y0153092D01*
X0053252Y0153659D01*
X0052685Y0154227D01*
X0051550Y0154227D01*
X0050983Y0153659D01*
X0050983Y0150824D02*
X0053252Y0150824D01*
X0053252Y0160824D02*
X0050983Y0160824D01*
X0052117Y0160824D02*
X0052117Y0164227D01*
X0050983Y0163092D01*
X0049569Y0160824D02*
X0047300Y0160824D01*
X0048434Y0160824D02*
X0048434Y0164227D01*
X0047300Y0163092D01*
X0047300Y0170824D02*
X0049569Y0170824D01*
X0048434Y0170824D02*
X0048434Y0174227D01*
X0047300Y0173092D01*
X0050983Y0173659D02*
X0050983Y0171391D01*
X0053252Y0173659D01*
X0053252Y0171391D01*
X0052685Y0170824D01*
X0051550Y0170824D01*
X0050983Y0171391D01*
X0050983Y0173659D02*
X0051550Y0174227D01*
X0052685Y0174227D01*
X0053252Y0173659D01*
X0049001Y0180824D02*
X0049569Y0181391D01*
X0049569Y0183659D01*
X0049001Y0184227D01*
X0047867Y0184227D01*
X0047300Y0183659D01*
X0047300Y0183092D01*
X0047867Y0182525D01*
X0049569Y0182525D01*
X0049001Y0180824D02*
X0047867Y0180824D01*
X0047300Y0181391D01*
X0047867Y0190824D02*
X0047300Y0191391D01*
X0047300Y0191958D01*
X0047867Y0192525D01*
X0049001Y0192525D01*
X0049569Y0191958D01*
X0049569Y0191391D01*
X0049001Y0190824D01*
X0047867Y0190824D01*
X0047867Y0192525D02*
X0047300Y0193092D01*
X0047300Y0193659D01*
X0047867Y0194227D01*
X0049001Y0194227D01*
X0049569Y0193659D01*
X0049569Y0193092D01*
X0049001Y0192525D01*
X0047300Y0205824D02*
X0047300Y0206391D01*
X0049569Y0208659D01*
X0049569Y0209227D01*
X0047300Y0209227D01*
X0047867Y0215824D02*
X0049001Y0215824D01*
X0049569Y0216391D01*
X0049569Y0216958D01*
X0049001Y0217525D01*
X0047300Y0217525D01*
X0047300Y0216391D01*
X0047867Y0215824D01*
X0047300Y0217525D02*
X0048434Y0218659D01*
X0049569Y0219227D01*
X0049001Y0225824D02*
X0047867Y0225824D01*
X0047300Y0226391D01*
X0047300Y0227525D02*
X0048434Y0228092D01*
X0049001Y0228092D01*
X0049569Y0227525D01*
X0049569Y0226391D01*
X0049001Y0225824D01*
X0047300Y0227525D02*
X0047300Y0229227D01*
X0049569Y0229227D01*
X0049001Y0235824D02*
X0049001Y0239227D01*
X0047300Y0237525D01*
X0049569Y0237525D01*
X0049001Y0245824D02*
X0047867Y0245824D01*
X0047300Y0246391D01*
X0048434Y0247525D02*
X0049001Y0247525D01*
X0049569Y0246958D01*
X0049569Y0246391D01*
X0049001Y0245824D01*
X0049001Y0247525D02*
X0049569Y0248092D01*
X0049569Y0248659D01*
X0049001Y0249227D01*
X0047867Y0249227D01*
X0047300Y0248659D01*
X0047300Y0255824D02*
X0049569Y0258092D01*
X0049569Y0258659D01*
X0049001Y0259227D01*
X0047867Y0259227D01*
X0047300Y0258659D01*
X0047300Y0255824D02*
X0049569Y0255824D01*
X0048434Y0265824D02*
X0048434Y0269227D01*
X0047300Y0269227D02*
X0049569Y0269227D01*
X0050983Y0269227D02*
X0053252Y0265824D01*
X0050983Y0265824D02*
X0053252Y0269227D01*
X0053252Y0275824D02*
X0050983Y0279227D01*
X0049569Y0278659D02*
X0049569Y0277525D01*
X0049001Y0276958D01*
X0047300Y0276958D01*
X0048434Y0276958D02*
X0049569Y0275824D01*
X0050983Y0275824D02*
X0053252Y0279227D01*
X0049569Y0278659D02*
X0049001Y0279227D01*
X0047300Y0279227D01*
X0047300Y0275824D01*
X0068409Y0286959D02*
X0070544Y0284824D01*
X0072679Y0286959D01*
X0072679Y0291229D01*
X0074854Y0290162D02*
X0074854Y0285891D01*
X0079125Y0290162D01*
X0079125Y0285891D01*
X0078057Y0284824D01*
X0075922Y0284824D01*
X0074854Y0285891D01*
X0074854Y0290162D02*
X0075922Y0291229D01*
X0078057Y0291229D01*
X0079125Y0290162D01*
X0068409Y0291229D02*
X0068409Y0286959D01*
X0073497Y0214648D02*
X0076700Y0214648D01*
X0076700Y0210378D02*
X0072430Y0210378D01*
X0072430Y0213581D01*
X0073497Y0214648D01*
X0073497Y0208203D02*
X0072430Y0207135D01*
X0072430Y0205000D01*
X0073497Y0203932D01*
X0075632Y0203932D01*
X0076700Y0205000D01*
X0076700Y0207135D01*
X0075632Y0208203D01*
X0073497Y0208203D01*
X0076700Y0201771D02*
X0076700Y0199635D01*
X0076700Y0200703D02*
X0072430Y0200703D01*
X0072430Y0199635D01*
X0072430Y0197474D02*
X0072430Y0195338D01*
X0071362Y0196406D02*
X0075632Y0196406D01*
X0076700Y0197474D01*
X0076700Y0193163D02*
X0072430Y0193163D01*
X0072430Y0188893D02*
X0075632Y0188893D01*
X0076700Y0189961D01*
X0076700Y0193163D01*
X0076700Y0186731D02*
X0076700Y0184596D01*
X0076700Y0185664D02*
X0070295Y0185664D01*
X0070295Y0184596D01*
X0073497Y0182421D02*
X0072430Y0181353D01*
X0072430Y0179218D01*
X0073497Y0178150D01*
X0075632Y0178150D01*
X0076700Y0179218D01*
X0076700Y0181353D01*
X0075632Y0182421D01*
X0073497Y0182421D01*
X0072430Y0175975D02*
X0072430Y0172773D01*
X0073497Y0171705D01*
X0074565Y0172773D01*
X0074565Y0174908D01*
X0075632Y0175975D01*
X0076700Y0174908D01*
X0076700Y0171705D01*
X0075632Y0163084D02*
X0073497Y0163084D01*
X0072430Y0162017D01*
X0072430Y0159882D01*
X0073497Y0158814D01*
X0075632Y0158814D01*
X0076700Y0159882D01*
X0076700Y0162017D01*
X0075632Y0163084D01*
X0076700Y0156652D02*
X0075632Y0155585D01*
X0071362Y0155585D01*
X0072430Y0156652D02*
X0072430Y0154517D01*
X0073497Y0145896D02*
X0074565Y0145896D01*
X0074565Y0141626D01*
X0075632Y0141626D02*
X0073497Y0141626D01*
X0072430Y0142694D01*
X0072430Y0144829D01*
X0073497Y0145896D01*
X0076700Y0142694D02*
X0075632Y0141626D01*
X0076700Y0142694D02*
X0076700Y0144829D01*
X0075632Y0139451D02*
X0073497Y0139451D01*
X0072430Y0138383D01*
X0072430Y0135180D01*
X0070295Y0135180D02*
X0076700Y0135180D01*
X0076700Y0138383D01*
X0075632Y0139451D01*
X0075632Y0133005D02*
X0073497Y0133005D01*
X0072430Y0131938D01*
X0072430Y0129803D01*
X0073497Y0128735D01*
X0075632Y0128735D01*
X0076700Y0129803D01*
X0076700Y0131938D01*
X0075632Y0133005D01*
X0072430Y0126566D02*
X0072430Y0125499D01*
X0074565Y0123364D01*
X0076700Y0123364D02*
X0072430Y0123364D01*
X0073497Y0121189D02*
X0071362Y0121189D01*
X0070295Y0120121D01*
X0070295Y0116918D01*
X0076700Y0116918D01*
X0074565Y0116918D02*
X0074565Y0120121D01*
X0073497Y0121189D01*
X0070295Y0200703D02*
X0069227Y0200703D01*
X0181924Y0284824D02*
X0185127Y0284824D01*
X0186194Y0285891D01*
X0186194Y0290162D01*
X0185127Y0291229D01*
X0181924Y0291229D01*
X0181924Y0284824D01*
X0188369Y0285891D02*
X0189437Y0284824D01*
X0191572Y0284824D01*
X0192640Y0286959D02*
X0188369Y0286959D01*
X0188369Y0288026D02*
X0189437Y0289094D01*
X0191572Y0289094D01*
X0192640Y0288026D01*
X0192640Y0286959D01*
X0194815Y0284824D02*
X0196950Y0284824D01*
X0195883Y0284824D02*
X0195883Y0291229D01*
X0194815Y0291229D01*
X0199112Y0289094D02*
X0201247Y0289094D01*
X0200180Y0290162D02*
X0200180Y0285891D01*
X0201247Y0284824D01*
X0203409Y0285891D02*
X0204477Y0286959D01*
X0207679Y0286959D01*
X0207679Y0288026D02*
X0207679Y0284824D01*
X0204477Y0284824D01*
X0203409Y0285891D01*
X0204477Y0289094D02*
X0206612Y0289094D01*
X0207679Y0288026D01*
X0209854Y0286959D02*
X0211990Y0284824D01*
X0214125Y0286959D01*
X0214125Y0291229D01*
X0209854Y0291229D02*
X0209854Y0286959D01*
X0223167Y0279227D02*
X0223167Y0277525D01*
X0224301Y0278092D01*
X0224868Y0278092D01*
X0225435Y0277525D01*
X0225435Y0276391D01*
X0224868Y0275824D01*
X0223734Y0275824D01*
X0223167Y0276391D01*
X0223167Y0279227D02*
X0225435Y0279227D01*
X0224868Y0269227D02*
X0223167Y0267525D01*
X0225435Y0267525D01*
X0224868Y0265824D02*
X0224868Y0269227D01*
X0220250Y0266909D02*
X0218549Y0266909D01*
X0217981Y0266342D01*
X0217981Y0264640D01*
X0220250Y0264640D01*
X0220250Y0263319D02*
X0220250Y0262185D01*
X0220250Y0262752D02*
X0216847Y0262752D01*
X0216847Y0262185D02*
X0216847Y0263319D01*
X0217981Y0257087D02*
X0217981Y0255386D01*
X0218549Y0254819D01*
X0219683Y0254819D01*
X0220250Y0255386D01*
X0220250Y0257087D01*
X0220817Y0257087D02*
X0217981Y0257087D01*
X0220817Y0257087D02*
X0221384Y0256520D01*
X0221384Y0255953D01*
X0223167Y0256391D02*
X0223734Y0255824D01*
X0224868Y0255824D01*
X0225435Y0256391D01*
X0225435Y0256958D01*
X0224868Y0257525D01*
X0224301Y0257525D01*
X0224868Y0257525D02*
X0225435Y0258092D01*
X0225435Y0258659D01*
X0224868Y0259227D01*
X0223734Y0259227D01*
X0223167Y0258659D01*
X0219683Y0253404D02*
X0218549Y0253404D01*
X0217981Y0252837D01*
X0217981Y0251703D01*
X0218549Y0251136D01*
X0219683Y0251136D01*
X0220250Y0251703D01*
X0220250Y0252837D01*
X0219683Y0253404D01*
X0220250Y0249814D02*
X0220250Y0248680D01*
X0220250Y0249247D02*
X0216847Y0249247D01*
X0216847Y0248680D01*
X0218549Y0247266D02*
X0220250Y0247266D01*
X0220250Y0245564D01*
X0219683Y0244997D01*
X0219116Y0245564D01*
X0219116Y0247266D01*
X0218549Y0247266D02*
X0217981Y0246698D01*
X0217981Y0245564D01*
X0218549Y0243582D02*
X0220250Y0243582D01*
X0218549Y0243582D02*
X0217981Y0243015D01*
X0217981Y0241314D01*
X0220250Y0241314D01*
X0220250Y0239899D02*
X0217981Y0239899D01*
X0216847Y0238765D01*
X0217981Y0237631D01*
X0220250Y0237631D01*
X0218549Y0237631D02*
X0218549Y0239899D01*
X0223167Y0238092D02*
X0224301Y0239227D01*
X0224301Y0235824D01*
X0223167Y0235824D02*
X0225435Y0235824D01*
X0224868Y0229227D02*
X0223734Y0229227D01*
X0223167Y0228659D01*
X0223167Y0226391D01*
X0225435Y0228659D01*
X0225435Y0226391D01*
X0224868Y0225824D01*
X0223734Y0225824D01*
X0223167Y0226391D01*
X0225435Y0228659D02*
X0224868Y0229227D01*
X0225435Y0245824D02*
X0223167Y0245824D01*
X0225435Y0248092D01*
X0225435Y0248659D01*
X0224868Y0249227D01*
X0223734Y0249227D01*
X0223167Y0248659D01*
X0223167Y0209227D02*
X0225435Y0205824D01*
X0225435Y0209227D01*
X0223167Y0209227D02*
X0223167Y0205824D01*
X0221846Y0205824D02*
X0220711Y0205824D01*
X0221279Y0205824D02*
X0221279Y0209227D01*
X0221846Y0209227D02*
X0220711Y0209227D01*
X0219297Y0209227D02*
X0219297Y0206958D01*
X0218163Y0205824D01*
X0217028Y0206958D01*
X0217028Y0209227D01*
X0217502Y0199227D02*
X0216368Y0199227D01*
X0215801Y0198659D01*
X0215801Y0196391D01*
X0216368Y0195824D01*
X0217502Y0195824D01*
X0218069Y0196391D01*
X0218069Y0197525D01*
X0216935Y0197525D01*
X0218069Y0198659D02*
X0217502Y0199227D01*
X0219484Y0199227D02*
X0221752Y0195824D01*
X0221752Y0199227D01*
X0223167Y0199227D02*
X0223167Y0195824D01*
X0224868Y0195824D01*
X0225435Y0196391D01*
X0225435Y0198659D01*
X0224868Y0199227D01*
X0223167Y0199227D01*
X0219484Y0199227D02*
X0219484Y0195824D01*
X0219484Y0189227D02*
X0221752Y0185824D01*
X0221752Y0189227D01*
X0223167Y0189227D02*
X0223167Y0185824D01*
X0224868Y0185824D01*
X0225435Y0186391D01*
X0225435Y0188659D01*
X0224868Y0189227D01*
X0223167Y0189227D01*
X0219484Y0189227D02*
X0219484Y0185824D01*
X0218069Y0186391D02*
X0218069Y0187525D01*
X0216935Y0187525D01*
X0218069Y0186391D02*
X0217502Y0185824D01*
X0216368Y0185824D01*
X0215801Y0186391D01*
X0215801Y0188659D01*
X0216368Y0189227D01*
X0217502Y0189227D01*
X0218069Y0188659D01*
X0219484Y0179227D02*
X0219484Y0177525D01*
X0220618Y0178092D01*
X0221185Y0178092D01*
X0221752Y0177525D01*
X0221752Y0176391D01*
X0221185Y0175824D01*
X0220051Y0175824D01*
X0219484Y0176391D01*
X0218069Y0177525D02*
X0215801Y0177525D01*
X0216935Y0178659D02*
X0216935Y0176391D01*
X0219484Y0179227D02*
X0221752Y0179227D01*
X0223167Y0179227D02*
X0223167Y0176958D01*
X0224301Y0175824D01*
X0225435Y0176958D01*
X0225435Y0179227D01*
X0225435Y0169227D02*
X0225435Y0166958D01*
X0224301Y0165824D01*
X0223167Y0166958D01*
X0223167Y0169227D01*
X0221752Y0168659D02*
X0221752Y0168092D01*
X0221185Y0167525D01*
X0221752Y0166958D01*
X0221752Y0166391D01*
X0221185Y0165824D01*
X0220051Y0165824D01*
X0219484Y0166391D01*
X0218209Y0166391D02*
X0218209Y0165824D01*
X0217642Y0165824D01*
X0217642Y0166391D01*
X0218209Y0166391D01*
X0216228Y0166391D02*
X0215660Y0165824D01*
X0214526Y0165824D01*
X0213959Y0166391D01*
X0215093Y0167525D02*
X0215660Y0167525D01*
X0216228Y0166958D01*
X0216228Y0166391D01*
X0215660Y0167525D02*
X0216228Y0168092D01*
X0216228Y0168659D01*
X0215660Y0169227D01*
X0214526Y0169227D01*
X0213959Y0168659D01*
X0212544Y0167525D02*
X0210276Y0167525D01*
X0211410Y0168659D02*
X0211410Y0166391D01*
X0215801Y0159227D02*
X0217502Y0159227D01*
X0218069Y0158659D01*
X0218069Y0157525D01*
X0217502Y0156958D01*
X0215801Y0156958D01*
X0216935Y0156958D02*
X0218069Y0155824D01*
X0219484Y0156391D02*
X0220051Y0155824D01*
X0221185Y0155824D01*
X0221752Y0156391D01*
X0221752Y0156958D01*
X0221185Y0157525D01*
X0220051Y0157525D01*
X0219484Y0158092D01*
X0219484Y0158659D01*
X0220051Y0159227D01*
X0221185Y0159227D01*
X0221752Y0158659D01*
X0223167Y0159227D02*
X0225435Y0159227D01*
X0224301Y0159227D02*
X0224301Y0155824D01*
X0223167Y0149227D02*
X0225435Y0149227D01*
X0224301Y0147525D02*
X0223167Y0147525D01*
X0223167Y0145824D02*
X0223167Y0149227D01*
X0221752Y0149227D02*
X0219484Y0149227D01*
X0219484Y0145824D01*
X0221752Y0145824D01*
X0220618Y0147525D02*
X0219484Y0147525D01*
X0218069Y0147525D02*
X0217502Y0146958D01*
X0215801Y0146958D01*
X0216935Y0146958D02*
X0218069Y0145824D01*
X0218069Y0147525D02*
X0218069Y0148659D01*
X0217502Y0149227D01*
X0215801Y0149227D01*
X0215801Y0145824D01*
X0214386Y0146391D02*
X0214386Y0148659D01*
X0213819Y0149227D01*
X0212685Y0149227D01*
X0212117Y0148659D01*
X0212117Y0146391D01*
X0212685Y0145824D01*
X0213819Y0145824D01*
X0214386Y0146391D01*
X0210796Y0145824D02*
X0209662Y0145824D01*
X0210229Y0145824D02*
X0210229Y0149227D01*
X0209662Y0149227D02*
X0210796Y0149227D01*
X0215801Y0155824D02*
X0215801Y0159227D01*
X0220618Y0167525D02*
X0221185Y0167525D01*
X0221752Y0168659D02*
X0221185Y0169227D01*
X0220051Y0169227D01*
X0219484Y0168659D01*
X0188369Y0285891D02*
X0188369Y0288026D01*
D14*
X0186409Y0282626D02*
X0186409Y0297571D01*
X0147591Y0297571D01*
X0147591Y0282626D01*
X0147591Y0270421D02*
X0147591Y0250028D01*
X0186409Y0250028D01*
X0186409Y0270421D01*
X0147500Y0221524D02*
X0142500Y0221524D01*
X0140000Y0219024D01*
X0140000Y0214024D01*
X0142500Y0211524D01*
X0147500Y0211524D01*
X0150000Y0214024D01*
X0150000Y0219024D01*
X0147500Y0221524D01*
X0147500Y0203524D02*
X0142500Y0203524D01*
X0140000Y0201024D01*
X0140000Y0196024D01*
X0142500Y0193524D01*
X0147500Y0193524D01*
X0150000Y0196024D01*
X0150000Y0201024D01*
X0147500Y0203524D01*
X0107500Y0212024D02*
X0107500Y0217024D01*
X0105000Y0219524D01*
X0100000Y0219524D01*
X0097500Y0217024D01*
X0097500Y0212024D01*
X0100000Y0209524D01*
X0105000Y0209524D01*
X0107500Y0212024D01*
X0092000Y0212024D02*
X0092000Y0217024D01*
X0089500Y0219524D01*
X0084500Y0219524D01*
X0082000Y0217024D01*
X0082000Y0212024D01*
X0084500Y0209524D01*
X0089500Y0209524D01*
X0092000Y0212024D01*
X0083591Y0251028D02*
X0122409Y0251028D01*
X0122409Y0271421D01*
X0122409Y0283626D02*
X0122409Y0298571D01*
X0083591Y0298571D01*
X0083591Y0283626D01*
X0083591Y0271421D02*
X0083591Y0251028D01*
D15*
X0091189Y0277524D02*
X0091193Y0277814D01*
X0091203Y0278104D01*
X0091221Y0278393D01*
X0091246Y0278682D01*
X0091278Y0278970D01*
X0091317Y0279257D01*
X0091363Y0279543D01*
X0091416Y0279828D01*
X0091476Y0280112D01*
X0091543Y0280394D01*
X0091617Y0280674D01*
X0091698Y0280953D01*
X0091785Y0281229D01*
X0091879Y0281503D01*
X0091980Y0281775D01*
X0092088Y0282044D01*
X0092202Y0282310D01*
X0092323Y0282574D01*
X0092450Y0282834D01*
X0092584Y0283092D01*
X0092723Y0283346D01*
X0092869Y0283596D01*
X0093021Y0283843D01*
X0093180Y0284086D01*
X0093344Y0284325D01*
X0093513Y0284560D01*
X0093689Y0284791D01*
X0093870Y0285017D01*
X0094057Y0285239D01*
X0094249Y0285456D01*
X0094446Y0285668D01*
X0094648Y0285876D01*
X0094856Y0286078D01*
X0095068Y0286275D01*
X0095285Y0286467D01*
X0095507Y0286654D01*
X0095733Y0286835D01*
X0095964Y0287011D01*
X0096199Y0287180D01*
X0096438Y0287344D01*
X0096681Y0287503D01*
X0096928Y0287655D01*
X0097178Y0287801D01*
X0097432Y0287940D01*
X0097690Y0288074D01*
X0097950Y0288201D01*
X0098214Y0288322D01*
X0098480Y0288436D01*
X0098749Y0288544D01*
X0099021Y0288645D01*
X0099295Y0288739D01*
X0099571Y0288826D01*
X0099850Y0288907D01*
X0100130Y0288981D01*
X0100412Y0289048D01*
X0100696Y0289108D01*
X0100981Y0289161D01*
X0101267Y0289207D01*
X0101554Y0289246D01*
X0101842Y0289278D01*
X0102131Y0289303D01*
X0102420Y0289321D01*
X0102710Y0289331D01*
X0103000Y0289335D01*
X0103290Y0289331D01*
X0103580Y0289321D01*
X0103869Y0289303D01*
X0104158Y0289278D01*
X0104446Y0289246D01*
X0104733Y0289207D01*
X0105019Y0289161D01*
X0105304Y0289108D01*
X0105588Y0289048D01*
X0105870Y0288981D01*
X0106150Y0288907D01*
X0106429Y0288826D01*
X0106705Y0288739D01*
X0106979Y0288645D01*
X0107251Y0288544D01*
X0107520Y0288436D01*
X0107786Y0288322D01*
X0108050Y0288201D01*
X0108310Y0288074D01*
X0108568Y0287940D01*
X0108822Y0287801D01*
X0109072Y0287655D01*
X0109319Y0287503D01*
X0109562Y0287344D01*
X0109801Y0287180D01*
X0110036Y0287011D01*
X0110267Y0286835D01*
X0110493Y0286654D01*
X0110715Y0286467D01*
X0110932Y0286275D01*
X0111144Y0286078D01*
X0111352Y0285876D01*
X0111554Y0285668D01*
X0111751Y0285456D01*
X0111943Y0285239D01*
X0112130Y0285017D01*
X0112311Y0284791D01*
X0112487Y0284560D01*
X0112656Y0284325D01*
X0112820Y0284086D01*
X0112979Y0283843D01*
X0113131Y0283596D01*
X0113277Y0283346D01*
X0113416Y0283092D01*
X0113550Y0282834D01*
X0113677Y0282574D01*
X0113798Y0282310D01*
X0113912Y0282044D01*
X0114020Y0281775D01*
X0114121Y0281503D01*
X0114215Y0281229D01*
X0114302Y0280953D01*
X0114383Y0280674D01*
X0114457Y0280394D01*
X0114524Y0280112D01*
X0114584Y0279828D01*
X0114637Y0279543D01*
X0114683Y0279257D01*
X0114722Y0278970D01*
X0114754Y0278682D01*
X0114779Y0278393D01*
X0114797Y0278104D01*
X0114807Y0277814D01*
X0114811Y0277524D01*
X0114807Y0277234D01*
X0114797Y0276944D01*
X0114779Y0276655D01*
X0114754Y0276366D01*
X0114722Y0276078D01*
X0114683Y0275791D01*
X0114637Y0275505D01*
X0114584Y0275220D01*
X0114524Y0274936D01*
X0114457Y0274654D01*
X0114383Y0274374D01*
X0114302Y0274095D01*
X0114215Y0273819D01*
X0114121Y0273545D01*
X0114020Y0273273D01*
X0113912Y0273004D01*
X0113798Y0272738D01*
X0113677Y0272474D01*
X0113550Y0272214D01*
X0113416Y0271956D01*
X0113277Y0271702D01*
X0113131Y0271452D01*
X0112979Y0271205D01*
X0112820Y0270962D01*
X0112656Y0270723D01*
X0112487Y0270488D01*
X0112311Y0270257D01*
X0112130Y0270031D01*
X0111943Y0269809D01*
X0111751Y0269592D01*
X0111554Y0269380D01*
X0111352Y0269172D01*
X0111144Y0268970D01*
X0110932Y0268773D01*
X0110715Y0268581D01*
X0110493Y0268394D01*
X0110267Y0268213D01*
X0110036Y0268037D01*
X0109801Y0267868D01*
X0109562Y0267704D01*
X0109319Y0267545D01*
X0109072Y0267393D01*
X0108822Y0267247D01*
X0108568Y0267108D01*
X0108310Y0266974D01*
X0108050Y0266847D01*
X0107786Y0266726D01*
X0107520Y0266612D01*
X0107251Y0266504D01*
X0106979Y0266403D01*
X0106705Y0266309D01*
X0106429Y0266222D01*
X0106150Y0266141D01*
X0105870Y0266067D01*
X0105588Y0266000D01*
X0105304Y0265940D01*
X0105019Y0265887D01*
X0104733Y0265841D01*
X0104446Y0265802D01*
X0104158Y0265770D01*
X0103869Y0265745D01*
X0103580Y0265727D01*
X0103290Y0265717D01*
X0103000Y0265713D01*
X0102710Y0265717D01*
X0102420Y0265727D01*
X0102131Y0265745D01*
X0101842Y0265770D01*
X0101554Y0265802D01*
X0101267Y0265841D01*
X0100981Y0265887D01*
X0100696Y0265940D01*
X0100412Y0266000D01*
X0100130Y0266067D01*
X0099850Y0266141D01*
X0099571Y0266222D01*
X0099295Y0266309D01*
X0099021Y0266403D01*
X0098749Y0266504D01*
X0098480Y0266612D01*
X0098214Y0266726D01*
X0097950Y0266847D01*
X0097690Y0266974D01*
X0097432Y0267108D01*
X0097178Y0267247D01*
X0096928Y0267393D01*
X0096681Y0267545D01*
X0096438Y0267704D01*
X0096199Y0267868D01*
X0095964Y0268037D01*
X0095733Y0268213D01*
X0095507Y0268394D01*
X0095285Y0268581D01*
X0095068Y0268773D01*
X0094856Y0268970D01*
X0094648Y0269172D01*
X0094446Y0269380D01*
X0094249Y0269592D01*
X0094057Y0269809D01*
X0093870Y0270031D01*
X0093689Y0270257D01*
X0093513Y0270488D01*
X0093344Y0270723D01*
X0093180Y0270962D01*
X0093021Y0271205D01*
X0092869Y0271452D01*
X0092723Y0271702D01*
X0092584Y0271956D01*
X0092450Y0272214D01*
X0092323Y0272474D01*
X0092202Y0272738D01*
X0092088Y0273004D01*
X0091980Y0273273D01*
X0091879Y0273545D01*
X0091785Y0273819D01*
X0091698Y0274095D01*
X0091617Y0274374D01*
X0091543Y0274654D01*
X0091476Y0274936D01*
X0091416Y0275220D01*
X0091363Y0275505D01*
X0091317Y0275791D01*
X0091278Y0276078D01*
X0091246Y0276366D01*
X0091221Y0276655D01*
X0091203Y0276944D01*
X0091193Y0277234D01*
X0091189Y0277524D01*
X0079000Y0203524D02*
X0112000Y0203524D01*
X0112000Y0152524D01*
X0079000Y0152524D01*
X0079000Y0203524D01*
X0149157Y0129634D02*
X0153094Y0129634D01*
X0149157Y0129634D02*
X0149157Y0098531D01*
X0152307Y0098531D01*
X0152307Y0086720D01*
X0166480Y0086720D01*
X0166480Y0098531D01*
X0169236Y0098531D01*
X0169236Y0129634D01*
X0164906Y0129634D01*
X0166480Y0098531D02*
X0152307Y0098531D01*
X0154000Y0190524D02*
X0154000Y0223524D01*
X0205000Y0223524D01*
X0205000Y0190524D01*
X0154000Y0190524D01*
X0155189Y0276524D02*
X0155193Y0276814D01*
X0155203Y0277104D01*
X0155221Y0277393D01*
X0155246Y0277682D01*
X0155278Y0277970D01*
X0155317Y0278257D01*
X0155363Y0278543D01*
X0155416Y0278828D01*
X0155476Y0279112D01*
X0155543Y0279394D01*
X0155617Y0279674D01*
X0155698Y0279953D01*
X0155785Y0280229D01*
X0155879Y0280503D01*
X0155980Y0280775D01*
X0156088Y0281044D01*
X0156202Y0281310D01*
X0156323Y0281574D01*
X0156450Y0281834D01*
X0156584Y0282092D01*
X0156723Y0282346D01*
X0156869Y0282596D01*
X0157021Y0282843D01*
X0157180Y0283086D01*
X0157344Y0283325D01*
X0157513Y0283560D01*
X0157689Y0283791D01*
X0157870Y0284017D01*
X0158057Y0284239D01*
X0158249Y0284456D01*
X0158446Y0284668D01*
X0158648Y0284876D01*
X0158856Y0285078D01*
X0159068Y0285275D01*
X0159285Y0285467D01*
X0159507Y0285654D01*
X0159733Y0285835D01*
X0159964Y0286011D01*
X0160199Y0286180D01*
X0160438Y0286344D01*
X0160681Y0286503D01*
X0160928Y0286655D01*
X0161178Y0286801D01*
X0161432Y0286940D01*
X0161690Y0287074D01*
X0161950Y0287201D01*
X0162214Y0287322D01*
X0162480Y0287436D01*
X0162749Y0287544D01*
X0163021Y0287645D01*
X0163295Y0287739D01*
X0163571Y0287826D01*
X0163850Y0287907D01*
X0164130Y0287981D01*
X0164412Y0288048D01*
X0164696Y0288108D01*
X0164981Y0288161D01*
X0165267Y0288207D01*
X0165554Y0288246D01*
X0165842Y0288278D01*
X0166131Y0288303D01*
X0166420Y0288321D01*
X0166710Y0288331D01*
X0167000Y0288335D01*
X0167290Y0288331D01*
X0167580Y0288321D01*
X0167869Y0288303D01*
X0168158Y0288278D01*
X0168446Y0288246D01*
X0168733Y0288207D01*
X0169019Y0288161D01*
X0169304Y0288108D01*
X0169588Y0288048D01*
X0169870Y0287981D01*
X0170150Y0287907D01*
X0170429Y0287826D01*
X0170705Y0287739D01*
X0170979Y0287645D01*
X0171251Y0287544D01*
X0171520Y0287436D01*
X0171786Y0287322D01*
X0172050Y0287201D01*
X0172310Y0287074D01*
X0172568Y0286940D01*
X0172822Y0286801D01*
X0173072Y0286655D01*
X0173319Y0286503D01*
X0173562Y0286344D01*
X0173801Y0286180D01*
X0174036Y0286011D01*
X0174267Y0285835D01*
X0174493Y0285654D01*
X0174715Y0285467D01*
X0174932Y0285275D01*
X0175144Y0285078D01*
X0175352Y0284876D01*
X0175554Y0284668D01*
X0175751Y0284456D01*
X0175943Y0284239D01*
X0176130Y0284017D01*
X0176311Y0283791D01*
X0176487Y0283560D01*
X0176656Y0283325D01*
X0176820Y0283086D01*
X0176979Y0282843D01*
X0177131Y0282596D01*
X0177277Y0282346D01*
X0177416Y0282092D01*
X0177550Y0281834D01*
X0177677Y0281574D01*
X0177798Y0281310D01*
X0177912Y0281044D01*
X0178020Y0280775D01*
X0178121Y0280503D01*
X0178215Y0280229D01*
X0178302Y0279953D01*
X0178383Y0279674D01*
X0178457Y0279394D01*
X0178524Y0279112D01*
X0178584Y0278828D01*
X0178637Y0278543D01*
X0178683Y0278257D01*
X0178722Y0277970D01*
X0178754Y0277682D01*
X0178779Y0277393D01*
X0178797Y0277104D01*
X0178807Y0276814D01*
X0178811Y0276524D01*
X0178807Y0276234D01*
X0178797Y0275944D01*
X0178779Y0275655D01*
X0178754Y0275366D01*
X0178722Y0275078D01*
X0178683Y0274791D01*
X0178637Y0274505D01*
X0178584Y0274220D01*
X0178524Y0273936D01*
X0178457Y0273654D01*
X0178383Y0273374D01*
X0178302Y0273095D01*
X0178215Y0272819D01*
X0178121Y0272545D01*
X0178020Y0272273D01*
X0177912Y0272004D01*
X0177798Y0271738D01*
X0177677Y0271474D01*
X0177550Y0271214D01*
X0177416Y0270956D01*
X0177277Y0270702D01*
X0177131Y0270452D01*
X0176979Y0270205D01*
X0176820Y0269962D01*
X0176656Y0269723D01*
X0176487Y0269488D01*
X0176311Y0269257D01*
X0176130Y0269031D01*
X0175943Y0268809D01*
X0175751Y0268592D01*
X0175554Y0268380D01*
X0175352Y0268172D01*
X0175144Y0267970D01*
X0174932Y0267773D01*
X0174715Y0267581D01*
X0174493Y0267394D01*
X0174267Y0267213D01*
X0174036Y0267037D01*
X0173801Y0266868D01*
X0173562Y0266704D01*
X0173319Y0266545D01*
X0173072Y0266393D01*
X0172822Y0266247D01*
X0172568Y0266108D01*
X0172310Y0265974D01*
X0172050Y0265847D01*
X0171786Y0265726D01*
X0171520Y0265612D01*
X0171251Y0265504D01*
X0170979Y0265403D01*
X0170705Y0265309D01*
X0170429Y0265222D01*
X0170150Y0265141D01*
X0169870Y0265067D01*
X0169588Y0265000D01*
X0169304Y0264940D01*
X0169019Y0264887D01*
X0168733Y0264841D01*
X0168446Y0264802D01*
X0168158Y0264770D01*
X0167869Y0264745D01*
X0167580Y0264727D01*
X0167290Y0264717D01*
X0167000Y0264713D01*
X0166710Y0264717D01*
X0166420Y0264727D01*
X0166131Y0264745D01*
X0165842Y0264770D01*
X0165554Y0264802D01*
X0165267Y0264841D01*
X0164981Y0264887D01*
X0164696Y0264940D01*
X0164412Y0265000D01*
X0164130Y0265067D01*
X0163850Y0265141D01*
X0163571Y0265222D01*
X0163295Y0265309D01*
X0163021Y0265403D01*
X0162749Y0265504D01*
X0162480Y0265612D01*
X0162214Y0265726D01*
X0161950Y0265847D01*
X0161690Y0265974D01*
X0161432Y0266108D01*
X0161178Y0266247D01*
X0160928Y0266393D01*
X0160681Y0266545D01*
X0160438Y0266704D01*
X0160199Y0266868D01*
X0159964Y0267037D01*
X0159733Y0267213D01*
X0159507Y0267394D01*
X0159285Y0267581D01*
X0159068Y0267773D01*
X0158856Y0267970D01*
X0158648Y0268172D01*
X0158446Y0268380D01*
X0158249Y0268592D01*
X0158057Y0268809D01*
X0157870Y0269031D01*
X0157689Y0269257D01*
X0157513Y0269488D01*
X0157344Y0269723D01*
X0157180Y0269962D01*
X0157021Y0270205D01*
X0156869Y0270452D01*
X0156723Y0270702D01*
X0156584Y0270956D01*
X0156450Y0271214D01*
X0156323Y0271474D01*
X0156202Y0271738D01*
X0156088Y0272004D01*
X0155980Y0272273D01*
X0155879Y0272545D01*
X0155785Y0272819D01*
X0155698Y0273095D01*
X0155617Y0273374D01*
X0155543Y0273654D01*
X0155476Y0273936D01*
X0155416Y0274220D01*
X0155363Y0274505D01*
X0155317Y0274791D01*
X0155278Y0275078D01*
X0155246Y0275366D01*
X0155221Y0275655D01*
X0155203Y0275944D01*
X0155193Y0276234D01*
X0155189Y0276524D01*
M02*
