G75*
%MOIN*%
%OFA0B0*%
%FSLAX25Y25*%
%IPPOS*%
%LPD*%
%AMOC8*
5,1,8,0,0,1.08239X$1,22.5*
%
%ADD10C,0.08200*%
%ADD11C,0.06350*%
%ADD12C,0.12800*%
%ADD13C,0.08400*%
%ADD14C,0.05524*%
D10*
X0042000Y0102524D03*
X0042000Y0112524D03*
X0042000Y0122524D03*
X0042000Y0132524D03*
X0042000Y0142524D03*
X0042000Y0152524D03*
X0042000Y0162524D03*
X0042000Y0172524D03*
X0042000Y0182524D03*
X0042000Y0192524D03*
X0042000Y0207524D03*
X0042000Y0217524D03*
X0042000Y0227524D03*
X0042000Y0237524D03*
X0042000Y0247524D03*
X0042000Y0257524D03*
X0042000Y0267524D03*
X0042000Y0277524D03*
X0087000Y0214524D03*
X0102500Y0214524D03*
X0145000Y0216524D03*
X0145000Y0198524D03*
X0232000Y0197524D03*
X0232000Y0207524D03*
X0232000Y0227524D03*
X0232000Y0237524D03*
X0232000Y0247524D03*
X0232000Y0257524D03*
X0232000Y0267524D03*
X0232000Y0277524D03*
X0232000Y0187524D03*
X0232000Y0177524D03*
X0232000Y0167524D03*
X0232000Y0157524D03*
X0232000Y0147524D03*
X0232000Y0137524D03*
D11*
X0174000Y0199524D03*
X0174000Y0213524D03*
X0102000Y0183524D03*
X0088000Y0183524D03*
D12*
X0085677Y0277524D03*
X0120323Y0277524D03*
X0149677Y0276524D03*
X0184323Y0276524D03*
D13*
X0176843Y0248965D03*
X0167000Y0248965D03*
X0157157Y0248965D03*
X0112843Y0249965D03*
X0103000Y0249965D03*
X0093157Y0249965D03*
X0159000Y0129240D03*
X0151717Y0121366D03*
X0166283Y0121366D03*
X0159000Y0102075D03*
D14*
X0159000Y0111524D03*
M02*
