%
M48
M72
T01C0.03150
T02C0.03937
T03C0.04000
T04C0.04331
T05C0.04724
T06C0.07874
%
T01
X88000Y183524
X102000Y183524
X174000Y199524
X174000Y213524
T02
X176843Y248965
X167000Y248965
X157157Y248965
X112843Y249965
X103000Y249965
X93157Y249965
X159000Y102075
T03
X42000Y102524
X42000Y112524
X42000Y122524
X42000Y132524
X42000Y142524
X42000Y152524
X42000Y162524
X42000Y172524
X42000Y182524
X42000Y192524
X42000Y207524
X42000Y217524
X42000Y227524
X42000Y237524
X42000Y247524
X42000Y257524
X42000Y267524
X42000Y277524
X87000Y214524
X102500Y214524
X145000Y216524
X145000Y198524
X232000Y197524
X232000Y207524
X232000Y227524
X232000Y237524
X232000Y247524
X232000Y257524
X232000Y267524
X232000Y277524
X232000Y187524
X232000Y177524
X232000Y167524
X232000Y157524
X232000Y147524
X232000Y137524
T04
X166283Y121366
X159000Y129240
X151717Y121366
T05
X159000Y111524
T06
X149677Y276524
X120323Y277524
X85677Y277524
X184323Y276524
M30
